<?xml version="1.0" encoding="utf-8"?>
<!-- Generator: Adobe Illustrator 23.0.1, SVG Export Plug-In . SVG Version: 6.00 Build 0)  -->
<svg version="1.1"
	 id="svg3336" xmlns:cc="http://creativecommons.org/ns#" xmlns:dc="http://purl.org/dc/elements/1.1/" xmlns:rdf="http://www.w3.org/1999/02/22-rdf-syntax-ns#" xmlns:svg="http://www.w3.org/2000/svg"
	 xmlns="http://www.w3.org/2000/svg" xmlns:xlink="http://www.w3.org/1999/xlink" x="0px" y="0px" viewBox="0 0 523.3 150"
	 enable-background="new 0 0 523.3 150" xml:space="preserve">
<g id="g3344" transform="matrix(1.25,0,0,-1.25,-240.25,333.85454)">
	<g>
		<path fill="#242424" d="M332.2,193.1c0,3.5,4.3,7.2,4.7,6.8c3-2.7,8.8-5.4,13.7-5.4c4.4,0,6.4,1.3,6.4,3.7c0,2.9-3.6,2.9-8.3,3.9
			c-7.7,1.6-15.5,4.9-15.5,14.5c0,9.6,7,15.5,19.7,15.5c12.1,0,17.4-4.2,17.4-8.9c0-4-4.8-7.5-5.1-7.2c-3.1,2.9-7.9,5-12.2,5
			c-4.1,0-6.2-1.3-6.2-3.6c0-2.7,3.7-2.5,8.6-3.6c9.1-2,16-6,16-14.5c0-10.1-6.9-15.8-20.9-15.8
			C337.1,183.5,332.2,188.2,332.2,193.1"/>
		<path fill="#242424" d="M376.2,190.8v33.9c0,4.5,2.1,6.7,6,6.7h2.1c4.1,0,6.3-2.2,6.3-6.7v-10.8h14.8v10.8c0,4.5,2.1,6.7,6,6.7
			h2.1c4.1,0,6.2-2.2,6.2-6.7v-33.9c0-4.4-2.1-6.7-6.2-6.7h-2.1c-3.9,0-6,2.3-6,6.7v11h-14.8v-11c0-4.4-2.1-6.7-6.3-6.7h-2.1
			C378.2,184.1,376.2,186.4,376.2,190.8"/>
		<path fill="#242424" d="M470.9,190.2v0.6c0,4.2,1.4,5.7,3.8,8.3l17.6,20.1h-14.5c-4.1,0-6.3,1.5-6.3,5.6v0.6c0,4,2.1,5.6,6.3,5.6
			h25.9c5.2,0,7.3-2.8,7.3-5.6v-0.7c0-4.1-1.5-5.8-3.8-8.2l-17.9-20.1h15.9c4.1,0,6.3-1.6,6.3-5.7v-0.6c0-4-2.1-5.7-6.3-5.7h-26.9
			C473,184.5,470.9,187.4,470.9,190.2"/>
		<path fill="#242424" d="M444.5,232.3c-9.3,0-18.1-4.5-18.1-10.4c0-7.3,9-7.1,9-7.1c1,4,4.2,6,8.4,6c6.5,0,8.9-3.2,8.9-7.8h-3.2
			c-18.5,0-25.5-7.4-25.5-15.9c0-8.2,6.8-13.7,15.8-13.7c6.2,0,12.2,2.3,13.4,6.7c0.6-3.4,3.7-6.4,7.9-6.4c3.7,0,5.5,1.3,5.6,1.7
			V214C466.6,225.7,458.8,232.3,444.5,232.3z M452.6,201.8c0-4.9-3.7-8.2-8.5-8.2c-3.5,0-5.7,1.8-5.7,4.7c0,4.7,6.3,6.7,11.1,6.8
			h3.2V201.8z"/>
		<path fill="#242424" d="M534.8,232.3c-9.3,0-18.1-4.5-18.1-10.4c0-7.3,9-7.1,9-7.1c1,4,4.2,6,8.4,6c6.5,0,8.9-3.2,8.9-7.8h-3.2
			c-18.5,0-25.5-7.4-25.5-15.9c0-8.2,6.8-13.7,15.8-13.7c6.2,0,12.2,2.3,13.4,6.7c0.6-3.4,3.7-6.4,7.9-6.4c3.7,0,5.5,1.3,5.6,1.7
			V214C556.9,225.7,549.1,232.3,534.8,232.3z M542.9,201.8c0-4.9-3.7-8.2-8.5-8.2c-3.5,0-5.7,1.8-5.7,4.7c0,4.7,6.3,6.7,11.1,6.8
			h3.1V201.8z"/>
		<path fill="#242424" d="M562.2,190.8v33.7c0,4.6,2.3,6.9,6.4,6.9h4.1c3.8,0,5.1-0.9,6.4-3.9l7.5-18.6l7.6,18.6
			c1.4,3.2,2.9,3.9,6.1,3.9h4c4.3,0,6.6-2.3,6.6-6.9v-33.7c0-4.4-1.5-6.7-5.6-6.7h-2.3c-3.9,0-5.6,2.3-5.6,6.7v19.9l-4.9-13.7
			c-0.6-1.8-0.7-3.5-6.1-3.5c-5.4,0-5.2,1.7-6,3.5l-4.8,13.1v-19.4c0-4.4-1.4-6.7-5.6-6.7h-2.3C563.8,184.1,562.2,186.4,562.2,190.8
			"/>
	</g>
	<g>
		
			<linearGradient id="path3396_1_" gradientUnits="userSpaceOnUse" x1="-736.1551" y1="-373.3915" x2="-734.3694" y2="-373.3915" gradientTransform="matrix(0 105.1306 105.1306 0 39507.0781 77539.5234)">
			<stop  offset="0" style="stop-color:#2255FF"/>
			<stop  offset="1" style="stop-color:#00AAFF"/>
		</linearGradient>
		<path id="path3396" fill="url(#path3396_1_)" d="M192.2,207.1c0-33.2,27-60,60-60l0,0c33.2,0,60,27,60,60l0,0c0,33.2-27,60-60,60
			l0,0C219.2,267.3,192.2,240.3,192.2,207.1"/>
		<path fill="#FFFFFF" d="M241.8,184.1c-6.3,0-12.5,2.1-17.4,6.2c-5.9,5.1-9.4,12-9.9,19.5c-0.4,7.3,2,14.3,7,19.8
			c5.6,6.1,15.5,15.7,16,16.1c2.7,2.6,7,2.5,9.6-0.2c2.6-2.7,2.5-7-0.2-9.6c-0.1-0.1-10.1-9.6-15.3-15.4c-2.5-2.7-3.7-6.2-3.5-9.8
			c0.2-3.8,2.1-7.4,5.2-10.1c4.1-3.6,12.2-4.3,17.3,0.2c3,2.7,6.7,6.7,6.7,6.7c2.5,2.8,6.8,2.9,9.6,0.4c2.8-2.5,2.9-6.8,0.4-9.6
			c-0.2-0.2-4.1-4.5-7.7-7.6C254.8,186.3,248.3,184.1,241.8,184.1 M282.8,184.6c-5.6-6.1-15.6-15.7-16-16.1c-1.3-1.2-3-1.9-4.7-1.9
			c-1.8,0-3.6,0.7-4.9,2.1c-2.6,2.7-2.5,7,0.2,9.6c0.1,0.1,10.1,9.6,15.3,15.4c2.5,2.7,3.7,6.2,3.5,9.8c-0.2,3.8-2.1,7.4-5.2,10.1
			c-4.1,3.5-12.2,4.3-17.3-0.2c-3-2.7-6.7-6.7-6.7-6.7c-2.5-2.8-6.8-2.9-9.6-0.4c-2.8,2.5-2.9,6.8-0.4,9.6c0.2,0.2,4.1,4.5,7.7,7.6
			c9.6,8.6,25.5,8.8,35.2,0.4c5.9-5.1,9.4-12,9.9-19.5C290.3,197,287.8,190,282.8,184.6"/>
	</g>
</g>
</svg>
